<mxfile host="Electron" agent="Mozilla/5.0 (Windows NT 10.0; Win64; x64) AppleWebKit/537.36 (KHTML, like Gecko) draw.io/26.2.2 Chrome/134.0.6998.178 Electron/35.1.2 Safari/537.36" version="26.2.2">
  <diagram name="Page-1" id="PGrmEcUy3a5XvpwH3_48">
    <mxGraphModel dx="1030" dy="612" grid="1" gridSize="10" guides="1" tooltips="1" connect="1" arrows="1" fold="1" page="1" pageScale="1" pageWidth="850" pageHeight="1100" math="0" shadow="0">
      <root>
        <mxCell id="0" />
        <mxCell id="1" parent="0" />
        <mxCell id="NjVKP0q-F9PjKgzHIEY4-1" value="&lt;font style=&quot;font-size: 30px;&quot;&gt;&lt;b style=&quot;&quot;&gt;Data Flow Diagram&lt;/b&gt;&lt;/font&gt;" style="text;html=1;align=center;verticalAlign=middle;resizable=0;points=[];autosize=1;strokeColor=none;fillColor=none;labelBackgroundColor=none;" parent="1" vertex="1">
          <mxGeometry x="280" width="290" height="50" as="geometry" />
        </mxCell>
        <mxCell id="NjVKP0q-F9PjKgzHIEY4-2" value="" style="rounded=0;whiteSpace=wrap;html=1;fillColor=none;dashed=1;strokeColor=#B3B3B3;" parent="1" vertex="1">
          <mxGeometry x="60" y="150" width="120" height="370" as="geometry" />
        </mxCell>
        <mxCell id="NjVKP0q-F9PjKgzHIEY4-3" value="Sources" style="rounded=0;whiteSpace=wrap;html=1;" parent="1" vertex="1">
          <mxGeometry x="80" y="140" width="80" height="30" as="geometry" />
        </mxCell>
        <mxCell id="NjVKP0q-F9PjKgzHIEY4-19" style="edgeStyle=orthogonalEdgeStyle;rounded=0;orthogonalLoop=1;jettySize=auto;html=1;entryX=0;entryY=0.75;entryDx=0;entryDy=0;" parent="1" source="NjVKP0q-F9PjKgzHIEY4-4" target="NjVKP0q-F9PjKgzHIEY4-11" edge="1">
          <mxGeometry relative="1" as="geometry" />
        </mxCell>
        <mxCell id="NjVKP0q-F9PjKgzHIEY4-20" style="edgeStyle=orthogonalEdgeStyle;rounded=0;orthogonalLoop=1;jettySize=auto;html=1;" parent="1" source="NjVKP0q-F9PjKgzHIEY4-4" target="NjVKP0q-F9PjKgzHIEY4-18" edge="1">
          <mxGeometry relative="1" as="geometry" />
        </mxCell>
        <mxCell id="NjVKP0q-F9PjKgzHIEY4-21" style="edgeStyle=orthogonalEdgeStyle;rounded=0;orthogonalLoop=1;jettySize=auto;html=1;entryX=0;entryY=0.5;entryDx=0;entryDy=0;" parent="1" source="NjVKP0q-F9PjKgzHIEY4-4" target="NjVKP0q-F9PjKgzHIEY4-14" edge="1">
          <mxGeometry relative="1" as="geometry" />
        </mxCell>
        <mxCell id="NjVKP0q-F9PjKgzHIEY4-4" value="&lt;b&gt;CRM&lt;/b&gt;" style="image;aspect=fixed;html=1;points=[];align=center;fontSize=12;image=img/lib/azure2/general/Folder_Blank.svg;" parent="1" vertex="1">
          <mxGeometry x="85.5" y="242" width="69" height="56.00000000000001" as="geometry" />
        </mxCell>
        <mxCell id="NjVKP0q-F9PjKgzHIEY4-22" style="edgeStyle=orthogonalEdgeStyle;rounded=0;orthogonalLoop=1;jettySize=auto;html=1;entryX=0;entryY=0.75;entryDx=0;entryDy=0;" parent="1" source="NjVKP0q-F9PjKgzHIEY4-5" target="NjVKP0q-F9PjKgzHIEY4-15" edge="1">
          <mxGeometry relative="1" as="geometry" />
        </mxCell>
        <mxCell id="NjVKP0q-F9PjKgzHIEY4-24" style="edgeStyle=orthogonalEdgeStyle;rounded=0;orthogonalLoop=1;jettySize=auto;html=1;" parent="1" source="NjVKP0q-F9PjKgzHIEY4-5" target="NjVKP0q-F9PjKgzHIEY4-17" edge="1">
          <mxGeometry relative="1" as="geometry" />
        </mxCell>
        <mxCell id="NjVKP0q-F9PjKgzHIEY4-5" value="&lt;b&gt;ERP&lt;/b&gt;" style="image;aspect=fixed;html=1;points=[];align=center;fontSize=12;image=img/lib/azure2/general/Folder_Blank.svg;" parent="1" vertex="1">
          <mxGeometry x="85.5" y="370" width="69" height="56.00000000000001" as="geometry" />
        </mxCell>
        <mxCell id="NjVKP0q-F9PjKgzHIEY4-9" value="" style="rounded=1;whiteSpace=wrap;html=1;fillColor=default;strokeColor=#d79b00;fillStyle=hatch;" parent="1" vertex="1">
          <mxGeometry x="219" y="200" width="151" height="320" as="geometry" />
        </mxCell>
        <mxCell id="NjVKP0q-F9PjKgzHIEY4-10" value="&lt;b&gt;Bronze Layer&lt;/b&gt;" style="rounded=1;whiteSpace=wrap;html=1;fillColor=#ffe6cc;strokeColor=#d79b00;fontSize=15;" parent="1" vertex="1">
          <mxGeometry x="234.5" y="140" width="120" height="50" as="geometry" />
        </mxCell>
        <mxCell id="WRiUxp8tFK2W82__gLRD-9" style="edgeStyle=orthogonalEdgeStyle;rounded=0;orthogonalLoop=1;jettySize=auto;html=1;entryX=0;entryY=0.5;entryDx=0;entryDy=0;" parent="1" source="NjVKP0q-F9PjKgzHIEY4-11" target="WRiUxp8tFK2W82__gLRD-3" edge="1">
          <mxGeometry relative="1" as="geometry" />
        </mxCell>
        <mxCell id="NjVKP0q-F9PjKgzHIEY4-11" value="crm_sales_details" style="rounded=1;whiteSpace=wrap;html=1;fillColor=#ffe6cc;strokeColor=#d79b00;fontSize=13;" parent="1" vertex="1">
          <mxGeometry x="226.75" y="230" width="135.5" height="20" as="geometry" />
        </mxCell>
        <mxCell id="WRiUxp8tFK2W82__gLRD-11" style="edgeStyle=orthogonalEdgeStyle;rounded=0;orthogonalLoop=1;jettySize=auto;html=1;entryX=0;entryY=0.5;entryDx=0;entryDy=0;" parent="1" source="NjVKP0q-F9PjKgzHIEY4-14" target="WRiUxp8tFK2W82__gLRD-4" edge="1">
          <mxGeometry relative="1" as="geometry" />
        </mxCell>
        <mxCell id="NjVKP0q-F9PjKgzHIEY4-14" value="crm_prd_info" style="rounded=1;whiteSpace=wrap;html=1;fillColor=#ffe6cc;strokeColor=#d79b00;fontSize=13;" parent="1" vertex="1">
          <mxGeometry x="226.75" y="290" width="135.5" height="20" as="geometry" />
        </mxCell>
        <mxCell id="WRiUxp8tFK2W82__gLRD-12" style="edgeStyle=orthogonalEdgeStyle;rounded=0;orthogonalLoop=1;jettySize=auto;html=1;" parent="1" source="NjVKP0q-F9PjKgzHIEY4-15" target="WRiUxp8tFK2W82__gLRD-5" edge="1">
          <mxGeometry relative="1" as="geometry" />
        </mxCell>
        <mxCell id="NjVKP0q-F9PjKgzHIEY4-15" value="erp_cust_az12" style="rounded=1;whiteSpace=wrap;html=1;fillColor=#ffe6cc;strokeColor=#d79b00;fontSize=13;" parent="1" vertex="1">
          <mxGeometry x="226.75" y="360" width="135.5" height="20" as="geometry" />
        </mxCell>
        <mxCell id="WRiUxp8tFK2W82__gLRD-13" style="edgeStyle=orthogonalEdgeStyle;rounded=0;orthogonalLoop=1;jettySize=auto;html=1;entryX=0;entryY=0.5;entryDx=0;entryDy=0;" parent="1" source="NjVKP0q-F9PjKgzHIEY4-16" target="WRiUxp8tFK2W82__gLRD-6" edge="1">
          <mxGeometry relative="1" as="geometry" />
        </mxCell>
        <mxCell id="NjVKP0q-F9PjKgzHIEY4-16" value="erp_loc_a101" style="rounded=1;whiteSpace=wrap;html=1;fillColor=#ffe6cc;strokeColor=#d79b00;fontSize=13;" parent="1" vertex="1">
          <mxGeometry x="226.75" y="390" width="135.5" height="20" as="geometry" />
        </mxCell>
        <mxCell id="WRiUxp8tFK2W82__gLRD-14" style="edgeStyle=orthogonalEdgeStyle;rounded=0;orthogonalLoop=1;jettySize=auto;html=1;entryX=0;entryY=0.5;entryDx=0;entryDy=0;" parent="1" source="NjVKP0q-F9PjKgzHIEY4-17" target="WRiUxp8tFK2W82__gLRD-7" edge="1">
          <mxGeometry relative="1" as="geometry" />
        </mxCell>
        <mxCell id="NjVKP0q-F9PjKgzHIEY4-17" value="erp_px_cat_g1v2" style="rounded=1;whiteSpace=wrap;html=1;fillColor=#ffe6cc;strokeColor=#d79b00;fontSize=13;" parent="1" vertex="1">
          <mxGeometry x="226.75" y="420" width="135.5" height="20" as="geometry" />
        </mxCell>
        <mxCell id="WRiUxp8tFK2W82__gLRD-10" style="edgeStyle=orthogonalEdgeStyle;rounded=0;orthogonalLoop=1;jettySize=auto;html=1;entryX=0;entryY=0.5;entryDx=0;entryDy=0;" parent="1" source="NjVKP0q-F9PjKgzHIEY4-18" target="WRiUxp8tFK2W82__gLRD-8" edge="1">
          <mxGeometry relative="1" as="geometry" />
        </mxCell>
        <mxCell id="NjVKP0q-F9PjKgzHIEY4-18" value="crm_cust_info" style="rounded=1;whiteSpace=wrap;html=1;fillColor=#ffe6cc;strokeColor=#d79b00;fontSize=13;" parent="1" vertex="1">
          <mxGeometry x="226.75" y="260" width="135.5" height="20" as="geometry" />
        </mxCell>
        <mxCell id="NjVKP0q-F9PjKgzHIEY4-23" style="edgeStyle=orthogonalEdgeStyle;rounded=0;orthogonalLoop=1;jettySize=auto;html=1;entryX=0.098;entryY=0.4;entryDx=0;entryDy=0;entryPerimeter=0;" parent="1" source="NjVKP0q-F9PjKgzHIEY4-5" target="NjVKP0q-F9PjKgzHIEY4-16" edge="1">
          <mxGeometry relative="1" as="geometry" />
        </mxCell>
        <mxCell id="WRiUxp8tFK2W82__gLRD-1" value="" style="rounded=1;whiteSpace=wrap;html=1;fillColor=#f5f5f5;strokeColor=#666666;fillStyle=hatch;fontColor=#333333;" parent="1" vertex="1">
          <mxGeometry x="430" y="200" width="151" height="320" as="geometry" />
        </mxCell>
        <mxCell id="WRiUxp8tFK2W82__gLRD-2" value="&lt;b&gt;Silver Layer&lt;/b&gt;" style="rounded=1;whiteSpace=wrap;html=1;fillColor=#f5f5f5;strokeColor=#666666;fontSize=15;fontColor=#333333;" parent="1" vertex="1">
          <mxGeometry x="445.5" y="140" width="120" height="50" as="geometry" />
        </mxCell>
        <mxCell id="WRiUxp8tFK2W82__gLRD-3" value="crm_sales_details" style="rounded=1;whiteSpace=wrap;html=1;fillColor=#f5f5f5;strokeColor=#666666;fontSize=13;fontColor=#333333;" parent="1" vertex="1">
          <mxGeometry x="437.75" y="230" width="135.5" height="20" as="geometry" />
        </mxCell>
        <mxCell id="WRiUxp8tFK2W82__gLRD-4" value="crm_prd_info" style="rounded=1;whiteSpace=wrap;html=1;fillColor=#f5f5f5;strokeColor=#666666;fontSize=13;fontColor=#333333;" parent="1" vertex="1">
          <mxGeometry x="437.75" y="290" width="135.5" height="20" as="geometry" />
        </mxCell>
        <mxCell id="WRiUxp8tFK2W82__gLRD-5" value="erp_cust_az12" style="rounded=1;whiteSpace=wrap;html=1;fillColor=#f5f5f5;strokeColor=#666666;fontSize=13;fontColor=#333333;" parent="1" vertex="1">
          <mxGeometry x="437.75" y="360" width="135.5" height="20" as="geometry" />
        </mxCell>
        <mxCell id="WRiUxp8tFK2W82__gLRD-6" value="erp_loc_a101" style="rounded=1;whiteSpace=wrap;html=1;fillColor=#f5f5f5;strokeColor=#666666;fontSize=13;fontColor=#333333;" parent="1" vertex="1">
          <mxGeometry x="437.75" y="390" width="135.5" height="20" as="geometry" />
        </mxCell>
        <mxCell id="WRiUxp8tFK2W82__gLRD-7" value="erp_px_cat_g1v2" style="rounded=1;whiteSpace=wrap;html=1;fillColor=#f5f5f5;strokeColor=#666666;fontSize=13;fontColor=#333333;" parent="1" vertex="1">
          <mxGeometry x="437.75" y="420" width="135.5" height="20" as="geometry" />
        </mxCell>
        <mxCell id="WRiUxp8tFK2W82__gLRD-8" value="crm_cust_info" style="rounded=1;whiteSpace=wrap;html=1;fillColor=#f5f5f5;strokeColor=#666666;fontSize=13;fontColor=#333333;" parent="1" vertex="1">
          <mxGeometry x="437.75" y="260" width="135.5" height="20" as="geometry" />
        </mxCell>
        <mxCell id="bDWwFSdqd2gWBmU1zbpq-1" value="" style="rounded=1;whiteSpace=wrap;html=1;fillColor=#f5f5f5;strokeColor=#666666;fillStyle=hatch;fontColor=#333333;" vertex="1" parent="1">
          <mxGeometry x="640" y="200" width="151" height="320" as="geometry" />
        </mxCell>
        <mxCell id="bDWwFSdqd2gWBmU1zbpq-2" value="&lt;b&gt;Gold Layer&lt;/b&gt;" style="rounded=1;whiteSpace=wrap;html=1;fillColor=#fff2cc;strokeColor=#d6b656;fontSize=15;" vertex="1" parent="1">
          <mxGeometry x="655.5" y="140" width="120" height="50" as="geometry" />
        </mxCell>
        <mxCell id="bDWwFSdqd2gWBmU1zbpq-3" value="fact_sales" style="rounded=1;whiteSpace=wrap;html=1;fillColor=#fff2cc;strokeColor=#d6b656;fontSize=13;" vertex="1" parent="1">
          <mxGeometry x="647.75" y="260" width="135.5" height="20" as="geometry" />
        </mxCell>
        <mxCell id="bDWwFSdqd2gWBmU1zbpq-4" value="dim_products" style="rounded=1;whiteSpace=wrap;html=1;fillColor=#fff2cc;strokeColor=#d6b656;fontSize=13;" vertex="1" parent="1">
          <mxGeometry x="647.75" y="390" width="135.5" height="20" as="geometry" />
        </mxCell>
        <mxCell id="bDWwFSdqd2gWBmU1zbpq-8" value="dim_customers" style="rounded=1;whiteSpace=wrap;html=1;fillColor=#fff2cc;strokeColor=#d6b656;fontSize=13;" vertex="1" parent="1">
          <mxGeometry x="647.75" y="325" width="135.5" height="20" as="geometry" />
        </mxCell>
        <mxCell id="bDWwFSdqd2gWBmU1zbpq-11" value="" style="endArrow=classic;html=1;rounded=0;exitX=1;exitY=0.5;exitDx=0;exitDy=0;entryX=0;entryY=0.5;entryDx=0;entryDy=0;" edge="1" parent="1" source="WRiUxp8tFK2W82__gLRD-8" target="bDWwFSdqd2gWBmU1zbpq-8">
          <mxGeometry width="50" height="50" relative="1" as="geometry">
            <mxPoint x="590" y="340" as="sourcePoint" />
            <mxPoint x="640" y="290" as="targetPoint" />
          </mxGeometry>
        </mxCell>
        <mxCell id="bDWwFSdqd2gWBmU1zbpq-12" value="" style="endArrow=classic;html=1;rounded=0;exitX=1;exitY=0.5;exitDx=0;exitDy=0;entryX=0;entryY=0.5;entryDx=0;entryDy=0;" edge="1" parent="1" source="WRiUxp8tFK2W82__gLRD-3" target="bDWwFSdqd2gWBmU1zbpq-3">
          <mxGeometry width="50" height="50" relative="1" as="geometry">
            <mxPoint x="590" y="270" as="sourcePoint" />
            <mxPoint x="640" y="220" as="targetPoint" />
          </mxGeometry>
        </mxCell>
        <mxCell id="bDWwFSdqd2gWBmU1zbpq-13" value="" style="endArrow=classic;html=1;rounded=0;exitX=1;exitY=0.5;exitDx=0;exitDy=0;entryX=0;entryY=0.5;entryDx=0;entryDy=0;" edge="1" parent="1" source="WRiUxp8tFK2W82__gLRD-4" target="bDWwFSdqd2gWBmU1zbpq-4">
          <mxGeometry width="50" height="50" relative="1" as="geometry">
            <mxPoint x="583" y="280" as="sourcePoint" />
            <mxPoint x="620" y="350" as="targetPoint" />
          </mxGeometry>
        </mxCell>
        <mxCell id="bDWwFSdqd2gWBmU1zbpq-14" value="" style="endArrow=classic;html=1;rounded=0;exitX=1;exitY=0.5;exitDx=0;exitDy=0;entryX=0;entryY=0.5;entryDx=0;entryDy=0;" edge="1" parent="1" source="WRiUxp8tFK2W82__gLRD-5" target="bDWwFSdqd2gWBmU1zbpq-8">
          <mxGeometry width="50" height="50" relative="1" as="geometry">
            <mxPoint x="583" y="310" as="sourcePoint" />
            <mxPoint x="658" y="410" as="targetPoint" />
          </mxGeometry>
        </mxCell>
        <mxCell id="bDWwFSdqd2gWBmU1zbpq-15" value="" style="endArrow=classic;html=1;rounded=0;exitX=1;exitY=0.5;exitDx=0;exitDy=0;entryX=0;entryY=0.75;entryDx=0;entryDy=0;" edge="1" parent="1" source="WRiUxp8tFK2W82__gLRD-6" target="bDWwFSdqd2gWBmU1zbpq-8">
          <mxGeometry width="50" height="50" relative="1" as="geometry">
            <mxPoint x="583" y="380" as="sourcePoint" />
            <mxPoint x="658" y="345" as="targetPoint" />
          </mxGeometry>
        </mxCell>
        <mxCell id="bDWwFSdqd2gWBmU1zbpq-16" value="" style="endArrow=classic;html=1;rounded=0;exitX=1;exitY=0.5;exitDx=0;exitDy=0;entryX=0;entryY=0.75;entryDx=0;entryDy=0;" edge="1" parent="1" source="WRiUxp8tFK2W82__gLRD-7" target="bDWwFSdqd2gWBmU1zbpq-4">
          <mxGeometry width="50" height="50" relative="1" as="geometry">
            <mxPoint x="583" y="410" as="sourcePoint" />
            <mxPoint x="658" y="350" as="targetPoint" />
          </mxGeometry>
        </mxCell>
        <mxCell id="bDWwFSdqd2gWBmU1zbpq-17" value="" style="image;aspect=fixed;html=1;points=[];align=center;fontSize=12;image=img/lib/azure2/general/File.svg;" vertex="1" parent="1">
          <mxGeometry x="136.46" y="397" width="26.79" height="33" as="geometry" />
        </mxCell>
        <mxCell id="bDWwFSdqd2gWBmU1zbpq-18" value="" style="image;aspect=fixed;html=1;points=[];align=center;fontSize=12;image=img/lib/azure2/general/File.svg;" vertex="1" parent="1">
          <mxGeometry x="133.21" y="270" width="26.79" height="33" as="geometry" />
        </mxCell>
      </root>
    </mxGraphModel>
  </diagram>
</mxfile>
